<svg xmlns="http://www.w3.org/2000/svg" width="27.622" height="31.985" viewBox="0 0 27.622 31.985">
  <g id="Group_30375" data-name="Group 30375" transform="translate(-1787.47 -1513.904)">
    <path id="Union_6" data-name="Union 6" d="M-10232.31,30.985v-.031h-22.761v.031H-10257V26.792a5.279,5.279,0,0,1,2.9-4.931V20.035c0-4.278,3.709-5.612,5.668-5.717h9.442c2.013.108,5.723,1.442,5.723,5.72v1.833a5.269,5.269,0,0,1,2.893,4.924v4.193Zm0-1.962V26.792a3.57,3.57,0,0,0-2.891-3.63v-.249h0V20.035c0-3.452-3.455-3.766-3.849-3.792h-2.464v0h-6.87c-.335.023-3.789.337-3.789,3.789v2.677h0v.445a3.576,3.576,0,0,0-2.894,3.635v2.232Zm-18.07-16.343v-.036h-.008V0h1.679V11h8.938V0h1.678V12.644h-.013v.036Z" transform="translate(12044.971 1514.404)" fill="#f9f8f8" stroke="rgba(0,0,0,0)" stroke-width="1"/>
  </g>
</svg>
