<svg width="35" height="35" viewBox="0 0 35 35" fill="none" xmlns="http://www.w3.org/2000/svg">
<g clip-path="url(#clip0_318_2)">
<path d="M8.238 34.237L8 32.761L13.19 18.381C13.3958 18.5277 13.6105 18.6612 13.833 18.781C14.0373 18.8913 14.2528 18.9791 14.476 19.043L9.376 33.138L8.238 34.237ZM26.809 34.237L25.666 33.137L20.524 19.095L21.191 18.809C21.4229 18.707 21.6331 18.5613 21.81 18.38L27.048 32.76L26.809 34.237ZM17.524 16.285C16.8969 16.2911 16.2749 16.1722 15.6944 15.935C15.1139 15.6979 14.5865 15.3474 14.1431 14.9039C13.6996 14.4605 13.3491 13.9331 13.112 13.3526C12.8748 12.7721 12.7559 12.1501 12.762 11.523C12.7312 10.3342 13.167 9.18057 13.976 8.309C14.6998 7.48039 15.7137 6.96074 16.809 6.857V2H18.238V6.857C19.3333 6.96074 20.3472 7.48039 21.071 8.309C21.88 9.18057 22.3158 10.3342 22.285 11.523C22.2911 12.1501 22.1722 12.7721 21.935 13.3526C21.6979 13.9331 21.3474 14.4605 20.9039 14.9039C20.4605 15.3474 19.9331 15.6979 19.3526 15.935C18.7721 16.1722 18.1501 16.2911 17.523 16.285H17.524ZM17.524 14.809C17.9568 14.8135 18.3861 14.7317 18.7869 14.5681C19.1876 14.4046 19.5516 14.1627 19.8577 13.8567C20.1637 13.5506 20.4056 13.1866 20.5691 12.7859C20.7327 12.3851 20.8145 11.9558 20.81 11.523C20.8069 10.984 20.6712 10.454 20.415 9.97983C20.1587 9.50562 19.7898 9.10173 19.3406 8.80375C18.8914 8.50578 18.3759 8.32287 17.8394 8.27115C17.3028 8.21943 16.7618 8.30049 16.264 8.50718C15.7662 8.71387 15.3269 9.03984 14.9848 9.45637C14.6427 9.8729 14.4083 10.3672 14.3022 10.8957C14.1962 11.4242 14.2218 11.9706 14.3768 12.4869C14.5318 13.0031 14.8114 13.4733 15.191 13.856C15.4942 14.1658 15.8576 14.4101 16.2588 14.5741C16.6601 14.738 17.0907 14.8179 17.524 14.809V14.809Z" fill="#F5F0E9"/>
</g>
<defs>
<clipPath id="clip0_318_2">
<rect width="19.047" height="32.237" fill="white" transform="translate(8 2)"/>
</clipPath>
</defs>
</svg>
