<svg width="35" height="35" viewBox="0 0 35 35" fill="none" xmlns="http://www.w3.org/2000/svg">
<path d="M3 32.1871V31.1591L33.537 31.0671V32.1871H3ZM7.619 24.7821V21.4621L21.284 7.87314L24.529 11.1171L10.939 24.7821H7.619ZM8.8 23.5991H10.327L22.847 11.0791L21.32 9.59014L8.8 22.0721V23.5991ZM25.9 9.62414L22.62 6.42414L24.567 4.47714C24.6904 4.33336 24.8422 4.21673 25.013 4.13463C25.1837 4.05252 25.3697 4.00673 25.559 4.00014C25.7556 3.9973 25.9503 4.0387 26.1288 4.12126C26.3073 4.20383 26.4649 4.32545 26.59 4.47714L27.773 5.58414C28.0413 5.862 28.1977 6.22913 28.212 6.61514C28.2264 6.99244 28.0966 7.36107 27.849 7.64614L25.9 9.62414Z" fill="#F5F0E9"/>
</svg>
