<svg xmlns="http://www.w3.org/2000/svg" width="21.031" height="21.031"><g data-name="Group 30451" transform="translate(-1071.441 -913.714)"><rect data-name="Rectangle 7058" width="21.031" height="21.031" rx="3.555" transform="translate(1071.441 913.714)" fill="none" opacity=".8"/><path data-name="Path 55480" d="M1080.448 922.45a3.149 3.149 0 0 0-3.107-2.714 3.021 3.021 0 0 0-.424.029 3.141 3.141 0 0 0-2.686 3.532l.019.135.7-.095-.018-.135a2.431 2.431 0 1 1 4.818-.657 2.4 2.4 0 0 1-.3 1.529l-2.124 3.284a.942.942 0 0 1-.647.389.961.961 0 0 1-1.08-.82l-.018-.135-.7.1.019.135a1.67 1.67 0 0 0 1.649 1.44 1.709 1.709 0 0 0 .224-.015 1.646 1.646 0 0 0 1.053-.584l.011.006.068-.106.076-.1h-.005l2.01-3.11h.007l.065-.115.067-.1-.01-.006a3.11 3.11 0 0 0 .333-1.876" fill="#2f2f30"/><path data-name="Path 55481" d="m1078.073 923.488.5.286.055-.1a1.46 1.46 0 0 0 .181-.93 1.473 1.473 0 1 0-2.919.4l.021.157.144.065a1.311 1.311 0 0 1 .7.974.891.891 0 0 1-.391.907l-.023-.052.247 1.1a2.924 2.924 0 0 0 .735-2.03 1.873 1.873 0 0 0-.869-1.331.9.9 0 0 1 1.787-.109.884.884 0 0 1-.111.567Z" fill="#2f2f30"/><path data-name="Rectangle 7048" fill="#2f2f30" d="M1081.907 917.141h.706v14.176h-.706z"/><path data-name="Path 55482" d="m1087.007 919.908.1-.1-.535-.536-.1.1a6.792 6.792 0 0 0 0 9.6l.1.1.535-.536-.1-.1a6.036 6.036 0 0 1 0-8.525" fill="#2f2f30"/><path data-name="Path 55483" d="M1087.118 924.171a4.125 4.125 0 0 1 1.214-2.937l.1-.1-.535-.536-.1.1a4.918 4.918 0 0 0 0 6.945l.1.1.535-.536-.1-.1a4.125 4.125 0 0 1-1.214-2.937" fill="#2f2f30"/><path data-name="Path 55484" d="m1089.616 922.679.1-.1-.535-.536-.1.1a2.869 2.869 0 0 0 0 4.053l.1.1.535-.536-.1-.1a2.112 2.112 0 0 1 0-2.983" fill="#2f2f30"/><path data-name="Path 55485" d="m1076.584 926.294 1.987-2.52-.03-1.268-.6-.529-.761-.166-.839.347-.166.744.679.877-.947-.477Z" fill="#2f2f30"/></g></svg>