<svg width="35" height="35" viewBox="0 0 35 35" fill="none" xmlns="http://www.w3.org/2000/svg">
<path d="M7.10005 31.4831C6.82372 31.4851 6.54975 31.4321 6.29406 31.3273C6.03838 31.2224 5.80608 31.0678 5.61068 30.8724C5.41528 30.677 5.26067 30.4447 5.15584 30.189C5.05101 29.9334 4.99806 29.6594 5.00005 29.3831V6.10005C4.99806 5.82372 5.05101 5.54975 5.15584 5.29406C5.26067 5.03838 5.41528 4.80608 5.61068 4.61068C5.80608 4.41528 6.03838 4.26067 6.29406 4.15584C6.54975 4.05101 6.82372 3.99806 7.10005 4.00005H19.5001L26.3711 10.8711V22.0931H25.1921V11.6341H18.7411V5.18305H7.10005C6.86243 5.19919 6.6387 5.30088 6.47029 5.46929C6.30188 5.6377 6.20019 5.86143 6.18405 6.09905V29.3831C6.20019 29.6207 6.30188 29.8444 6.47029 30.0128C6.6387 30.1812 6.86243 30.2829 7.10005 30.2991H21.5661V31.4821L7.10005 31.4831ZM30.8801 32.2461L25.4221 26.8261V31.9791H24.2761V24.8001H31.4521V25.9451H26.2611L31.6811 31.4031L30.8801 32.2461Z" fill="#F5F0E9"/>
</svg>
