<svg width="35" height="35" viewBox="0 0 35 35" fill="none" xmlns="http://www.w3.org/2000/svg">
<path d="M17.8137 30.2613C18.049 30.2599 18.2821 30.2145 18.5007 30.1273C18.7221 30.0439 18.9191 29.9064 19.0737 29.7273L31.1357 17.6653C31.5004 17.3064 31.8091 16.8948 32.0517 16.4443C32.2814 16.0094 32.3996 15.5242 32.3957 15.0323C32.3954 14.5224 32.2777 14.0194 32.0517 13.5623C31.8145 13.0796 31.5057 12.6356 31.1357 12.2453L25.2187 6.36731C24.8815 5.99155 24.4738 5.68575 24.0187 5.4673C23.5804 5.27272 23.1052 5.17516 22.6257 5.18131C22.1402 5.17651 21.6591 5.27395 21.2137 5.4673C20.75 5.68163 20.3346 5.9878 19.9927 6.36731L18.5427 7.81731L21.5197 10.7563C21.7898 11.0598 22.0148 11.4006 22.1877 11.7683C22.3732 12.1413 22.471 12.5517 22.4737 12.9683C22.4815 13.3276 22.4144 13.6846 22.2767 14.0165C22.139 14.3485 21.9336 14.6481 21.6737 14.8963C21.4243 15.1482 21.1268 15.3473 20.7988 15.4817C20.4708 15.616 20.1191 15.6829 19.7647 15.6783C19.3498 15.6851 18.9367 15.6205 18.5437 15.4873C18.1839 15.3577 17.8579 15.1489 17.5897 14.8763L14.6897 11.9763L8.00469 18.6573C7.83001 18.8307 7.69373 19.0389 7.60469 19.2683C7.52009 19.4744 7.47464 19.6945 7.47069 19.9173C7.46118 20.1076 7.49189 20.2978 7.56081 20.4754C7.62973 20.6531 7.73532 20.8142 7.87069 20.9483C8.00586 21.0755 8.16486 21.1748 8.33854 21.2404C8.51222 21.3059 8.69715 21.3365 8.88269 21.3303C9.11992 21.3284 9.35406 21.2762 9.56969 21.1773C9.78261 21.0864 9.97688 20.9569 10.1427 20.7953L15.0287 15.9093L15.8687 16.7493L10.9827 21.5973C10.808 21.7707 10.6717 21.9789 10.5827 22.2083C10.4955 22.4269 10.4501 22.6599 10.4487 22.8953C10.4544 23.268 10.605 23.6239 10.8685 23.8875C11.1321 24.151 11.488 24.3016 11.8607 24.3073C12.0979 24.3054 12.3321 24.2532 12.5477 24.1543C12.7606 24.0634 12.9549 23.9339 13.1207 23.7723L18.3497 18.5433L19.1897 19.3833L13.9607 24.5743C13.6307 24.9284 13.4408 25.3905 13.4267 25.8743C13.4324 26.247 13.583 26.6029 13.8465 26.8665C14.1101 27.13 14.466 27.2806 14.8387 27.2863C15.0675 27.2852 15.2938 27.239 15.5047 27.1503C15.7267 27.0577 15.928 26.9217 16.0967 26.7503L21.3257 21.5213L22.1657 22.3613L16.9367 27.5903C16.7589 27.7685 16.6223 27.9836 16.5367 28.2203C16.4531 28.4334 16.4077 28.6595 16.4027 28.8883C16.3963 29.0743 16.4306 29.2593 16.5032 29.4307C16.5757 29.602 16.6847 29.7555 16.8227 29.8803C17.0917 30.13 17.4466 30.2665 17.8137 30.2613V30.2613ZM17.8137 31.4443C17.4553 31.4471 17.1006 31.3716 16.7744 31.2233C16.4482 31.0749 16.1582 30.8572 15.9247 30.5853C15.664 30.2943 15.4666 29.9523 15.345 29.581C15.2235 29.2097 15.1805 28.8171 15.2187 28.4283C14.8201 28.4732 14.4166 28.4285 14.0375 28.2972C13.6585 28.166 13.3137 27.9516 13.0283 27.6698C12.7428 27.388 12.524 27.046 12.3879 26.6687C12.2518 26.2914 12.2019 25.8884 12.2417 25.4893C11.8377 25.5126 11.4333 25.4537 11.0527 25.3162C10.6722 25.1787 10.3235 24.9654 10.0277 24.6893C9.75228 24.3945 9.54201 24.045 9.41055 23.6635C9.2791 23.2821 9.2294 22.8772 9.26469 22.4753C8.5096 22.5444 7.75708 22.3186 7.16469 21.8453C6.87707 21.6156 6.64767 21.3213 6.49512 20.9863C6.34257 20.6513 6.27116 20.2851 6.28669 19.9173C6.28772 19.5305 6.36556 19.1478 6.51569 18.7913C6.66532 18.4271 6.88594 18.0964 7.16469 17.8183L14.6847 10.2603L18.2717 13.8503C18.4666 14.04 18.6925 14.1949 18.9397 14.3083C19.1955 14.433 19.4761 14.4983 19.7607 14.4993C20.1626 14.4897 20.5455 14.3257 20.8298 14.0414C21.1141 13.7571 21.278 13.3743 21.2877 12.9723C21.2882 12.7205 21.2293 12.4721 21.1157 12.2473C20.9977 12.0131 20.8502 11.795 20.6767 11.5983L15.4047 6.36731C15.0628 5.9878 14.6474 5.68163 14.1837 5.4673C13.7383 5.27395 13.2572 5.17651 12.7717 5.18131C12.2922 5.17516 11.817 5.27272 11.3787 5.4673C10.9303 5.67921 10.5238 5.9702 10.1787 6.32631L5.33169 11.1763C4.96163 11.5657 4.66427 12.0181 4.45369 12.5123C4.2465 13.0191 4.15527 13.5657 4.18669 14.1123C4.18746 14.5214 4.25849 14.9273 4.39669 15.3123C4.53197 15.6979 4.71793 16.0638 4.94969 16.4003L4.03369 17.2783C3.75253 16.8144 3.5222 16.3216 3.34669 15.8083C3.14698 15.2516 3.0317 14.6681 3.00469 14.0773C2.97358 13.372 3.09749 12.6685 3.36769 12.0163C3.63504 11.3797 4.01666 10.7975 4.49369 10.2983L9.30469 5.52731C9.77014 5.0489 10.3201 4.6607 10.9267 4.3823C11.5097 4.12555 12.1406 3.99535 12.7777 4.0003C13.4273 3.99283 14.0711 4.12302 14.6667 4.3823C15.2652 4.65543 15.8036 5.04462 16.2507 5.52731L17.7007 6.97731L19.1507 5.52731C19.6161 5.0489 20.1661 4.6607 20.7727 4.3823C21.3557 4.12555 21.9866 3.99535 22.6237 4.0003C23.2668 3.99668 23.9036 4.12676 24.4937 4.3823C25.0989 4.65204 25.6431 5.04153 26.0937 5.52731L31.9717 11.3673C32.4732 11.8656 32.8748 12.4552 33.1547 13.1043C33.4257 13.7113 33.5686 14.3676 33.5747 15.0323C33.5793 15.6734 33.4355 16.3069 33.1547 16.8833C32.853 17.4858 32.4532 18.034 31.9717 18.5053L19.9137 30.5663C19.6484 30.8692 19.3149 31.1046 18.9407 31.2533C18.5794 31.3837 18.1977 31.4484 17.8137 31.4443V31.4443Z" fill="#F5F0E9"/>
</svg>
