<svg xmlns="http://www.w3.org/2000/svg" width="23.485" height="31.828" viewBox="0 0 23.485 31.828">
  <path id="Union_7" data-name="Union 7" d="M-10236.423,30.828V30.8h-18.67v.026H-10257V19.94a5.673,5.673,0,0,1,5.6-5.691h1.073v0h10.162c1.987.108,5.65,1.434,5.65,5.694V30.828Zm0-1.946V19.94c0-3.437-3.41-3.751-3.8-3.774h-.968v0h-10.16c-.332.021-3.742.335-3.742,3.771v8.943Zm-15.4-16.261v-.039h-.008V0h1.658V10.951h8.829V0h1.657V12.583h-.013v.039Z" transform="translate(10257.501 0.5)" fill="#f9f8f8" stroke="rgba(0,0,0,0)" stroke-width="1"/>
</svg>
