<svg xmlns="http://www.w3.org/2000/svg" width="34" height="34"><path d="M9.65 20h1.45v-4.1h2.65a1.506 1.506 0 0 0 1.075-.4 1.375 1.375 0 0 0 .425-1.05V11.8a1.454 1.454 0 0 0-1.5-1.5h-4.1Zm1.45-5.55V11.8h2.65v2.65ZM17.4 20h3.9a1.415 1.415 0 0 0 1.075-.45 1.481 1.481 0 0 0 .425-1.05v-6.7a1.454 1.454 0 0 0-1.5-1.5h-3.9Zm1.45-1.5v-6.7h2.45v6.7Zm6.6 1.5h1.5v-4.1h3v-1.45h-3V11.8h3v-1.5h-4.5Zm-17.6 8.9a2.732 2.732 0 0 1-2.75-2.75V2.75A2.732 2.732 0 0 1 7.85 0h23.4A2.732 2.732 0 0 1 34 2.75v23.4a2.732 2.732 0 0 1-2.75 2.75Zm0-1.5h23.4a1.157 1.157 0 0 0 .85-.35 1.218 1.218 0 0 0 .35-.9V2.75a1.2 1.2 0 0 0-1.2-1.2H7.85a1.218 1.218 0 0 0-.9.35 1.157 1.157 0 0 0-.35.85v23.4a1.2 1.2 0 0 0 1.25 1.25ZM2.75 34A2.732 2.732 0 0 1 0 31.25V6.3h1.55v24.95a1.2 1.2 0 0 0 1.2 1.2H27.7V34ZM6.6 1.55Z" fill="#b3b3b3"/></svg>