<svg width="35" height="35" viewBox="0 0 35 35" fill="none" xmlns="http://www.w3.org/2000/svg">
<g clip-path="url(#clip0_318_7)">
<path d="M28.922 17.76C28.7196 14.9971 27.5185 12.4022 25.543 10.46C23.6182 8.49402 21.0289 7.31723 18.282 7.16V6C19.8196 6.06725 21.329 6.43519 22.725 7.083C24.0884 7.70862 25.3279 8.57479 26.384 9.64C27.4374 10.709 28.2965 11.9533 28.923 13.317C29.5712 14.7148 29.9511 16.2219 30.043 17.76H28.922ZM22.762 17.76C22.5532 16.6439 22.0134 15.6164 21.213 14.811C20.4249 14.0003 19.3976 13.4637 18.282 13.28V12.122C19.7037 12.2979 21.0216 12.957 22.015 13.989C23.0254 15.0176 23.6896 16.3359 23.915 17.76H22.762ZM28.138 30.453C25.4419 30.4059 22.7971 29.7077 20.429 28.418C17.7919 27.0533 15.3806 25.2907 13.28 23.192C11.1726 21.1084 9.40298 18.7089 8.03505 16.08C6.74068 13.7069 6.04232 11.0548 6.00005 8.352C5.99845 8.14078 6.03887 7.93136 6.11897 7.73591C6.19906 7.54046 6.31722 7.36289 6.46658 7.21353C6.61594 7.06418 6.7935 6.94601 6.98895 6.86592C7.1844 6.78583 7.39383 6.7454 7.60505 6.747H10.928C11.3254 6.73754 11.7118 6.87741 12.011 7.139C12.3158 7.4083 12.5261 7.76828 12.611 8.166L13.395 11.489C13.4472 11.8439 13.4282 12.2056 13.339 12.553C13.2615 12.8482 13.0991 13.1141 12.872 13.318L9.54905 16.418C10.8864 18.7119 12.5112 20.8257 14.384 22.708C16.2229 24.4998 18.3026 26.0265 20.563 27.244L23.774 23.921C23.9973 23.6649 24.2789 23.4664 24.595 23.342C24.9064 23.2292 25.2438 23.2097 25.566 23.286L28.366 23.921C28.7713 23.9856 29.1377 24.1997 29.393 24.521C29.6557 24.8486 29.7945 25.2582 29.785 25.678V28.851C29.791 29.0648 29.7522 29.2774 29.6711 29.4753C29.59 29.6732 29.4684 29.8519 29.314 30C29.1578 30.1496 28.9734 30.2666 28.7715 30.3442C28.5696 30.4218 28.3543 30.4585 28.138 30.452V30.453ZM8.95005 15.408L12.085 12.5C12.166 12.4121 12.218 12.3014 12.234 12.183C12.2581 12.0537 12.2705 11.9225 12.271 11.791L11.487 8.356C11.4796 8.29042 11.4592 8.22697 11.4271 8.1693C11.395 8.11164 11.3518 8.06089 11.3 8.02C11.1916 7.94223 11.0604 7.90282 10.927 7.908H7.52705C7.47208 7.90414 7.41693 7.91213 7.36531 7.93142C7.3137 7.95071 7.26683 7.98086 7.22787 8.01982C7.1889 8.05878 7.15876 8.10565 7.13947 8.15727C7.12018 8.20888 7.11219 8.26403 7.11605 8.319C7.10819 9.41759 7.25908 10.5116 7.56405 11.567C7.93185 12.8794 8.39509 14.1631 8.95005 15.408V15.408ZM28.213 29.333C28.2681 29.336 28.3231 29.3276 28.3747 29.3083C28.4264 29.2891 28.4735 29.2593 28.513 29.221C28.5485 29.1874 28.5768 29.147 28.596 29.1021C28.6153 29.0572 28.6252 29.0088 28.625 28.96V25.6C28.6302 25.4667 28.5908 25.3354 28.513 25.227C28.4722 25.1752 28.4214 25.132 28.3637 25.0999C28.3061 25.0678 28.2426 25.0475 28.177 25.04L25.228 24.44C25.1364 24.4151 25.0397 24.4151 24.948 24.44C24.8406 24.4781 24.7444 24.5423 24.668 24.627L21.644 27.763C22.712 28.3275 23.8578 28.7302 25.044 28.958C26.0859 29.1844 27.1471 29.31 28.213 29.333V29.333Z" fill="#F5F0E9"/>
</g>
<defs>
<clipPath id="clip0_318_7">
<rect width="24.042" height="24.453" fill="white" transform="translate(6 6)"/>
</clipPath>
</defs>
</svg>
