<svg xmlns="http://www.w3.org/2000/svg" width="21.031" height="21.031"><g data-name="Group 30452" transform="translate(-1071.441 -943.969)"><rect data-name="Rectangle 7056" width="21.031" height="21.031" rx="3.555" transform="translate(1071.441 943.969)" fill="none" opacity=".8"/><path data-name="Path 55476" d="M1087.427 952.213h-.753v4.492a4.938 4.938 0 0 1-9.627 1.553l-.685.221.685-.221-1.2-3.713a.547.547 0 1 1 1.04-.337l1.054 3.266h.005a1.058 1.058 0 0 0 2.095-.24v-7.23a.547.547 0 0 1 1.094 0v6.28h.753v-8.413a.547.547 0 1 1 1.093 0v8.413h.754v-6.282a.547.547 0 0 1 1.093 0v2.129c0 .027-.008.052-.008.079h.008-.008l.008 2.556v1.514h.753v-4.15a.545.545 0 0 1 1.085.082h.753a1.294 1.294 0 0 0-1.838-1.18v-1.028a1.3 1.3 0 0 0-1.3-1.3 1.279 1.279 0 0 0-.546.124v-.97a1.3 1.3 0 0 0-2.6 0v.974a1.273 1.273 0 0 0-.547-.125 1.3 1.3 0 0 0-1.3 1.3v7.23a.3.3 0 0 1-.592.1l-.03-.09-1.066-3.289a1.3 1.3 0 0 0-2.471.8l1.2 3.727a5.686 5.686 0 0 0 11.079-1.457h.017Z" fill="#2f2f30"/></g></svg>