<svg xmlns="http://www.w3.org/2000/svg" width="38" height="38" viewBox="0 0 38 38">
  <g id="Group_30335" data-name="Group 30335" transform="translate(0.019)">
    <circle id="Ellipse_8" data-name="Ellipse 8" cx="19" cy="19" r="19" transform="translate(-0.019)" fill="#2f2f30"/>
    <path id="path5" d="M21.137,2.033a8.664,8.664,0,0,1-2.491.683,4.35,4.35,0,0,0,1.907-2.4A8.683,8.683,0,0,1,17.8,1.369a4.34,4.34,0,0,0-7.39,3.955A12.311,12.311,0,0,1,1.472.794a4.341,4.341,0,0,0,1.342,5.79A4.317,4.317,0,0,1,.849,6.041c0,.018,0,.036,0,.055a4.34,4.34,0,0,0,3.479,4.252,4.344,4.344,0,0,1-1.958.074A4.341,4.341,0,0,0,6.42,13.434,8.7,8.7,0,0,1,1.035,15.29,8.82,8.82,0,0,1,0,15.229a12.274,12.274,0,0,0,6.648,1.948A12.254,12.254,0,0,0,18.986,4.839q0-.282-.013-.561a8.81,8.81,0,0,0,2.164-2.245Z" transform="translate(9.165 10.1)" fill="#ebe7e6"/>
  </g>
</svg>
