<svg xmlns="http://www.w3.org/2000/svg" width="21.031" height="21.031"><g data-name="Group 30450" transform="translate(-1071.441 -883.459)"><rect data-name="Rectangle 7057" width="21.031" height="21.031" rx="3.555" transform="translate(1071.441 883.459)" fill="none" opacity=".8"/><path data-name="Rectangle 7043" fill="#2f2f30" d="M1081.255 886.901h.704v14.144h-.704z"/><path data-name="Rectangle 7044" fill="#2f2f30" d="M1076.3 892.99h1.551v4.074h-1.551z"/><path data-name="Path 55476" d="m1089.375 895.019-2.034-1.175 2.034-1.174-.392-.681-2.036 1.175v-2.349h-.785v2.349l-2.035-1.175-.393.681 2.035 1.174-2.034 1.175.392.68 2.035-1.174v2.349h.785v-2.349l2.035 1.174Z" fill="#2f2f30"/><path data-name="Path 55477" d="M1074.879 896.884a1.992 1.992 0 1 0 1.991-1.991 1.991 1.991 0 0 0-1.991 1.991" fill="#2f2f30"/><path data-name="Path 55478" d="M1074.879 896.884a1.992 1.992 0 1 0 1.991-1.991 1.991 1.991 0 0 0-1.991 1.991Z" fill="#2f2f30"/><path data-name="Rectangle 7045" fill="#2f2f30" d="M1075.696 889.893h.68v5.661h-.68z"/><path data-name="Rectangle 7046" fill="#2f2f30" d="M1077.365 889.893h.68v5.661h-.68z"/><path data-name="Path 55479" d="M1076.871 889.411a.5.5 0 0 1 .494.494h.676a1.174 1.174 0 1 0-2.348 0h.68a.5.5 0 0 1 .494-.494" fill="#2f2f30"/></g></svg>