<?xml version="1.0" encoding="utf-8"?>
<!-- Generator: Adobe Illustrator 26.3.1, SVG Export Plug-In . SVG Version: 6.00 Build 0)  -->
<svg version="1.1" id="Warstwa_1" xmlns="http://www.w3.org/2000/svg" xmlns:xlink="http://www.w3.org/1999/xlink" x="0px" y="0px"
	 viewBox="0 0 50 50" style="enable-background:new 0 0 50 50;" xml:space="preserve">
<style type="text/css">
	.st0{fill:#FFFFFF;enable-background:new    ;}
</style>
<g id="Group_29752" transform="translate(-24196 -885.002)">
	<path id="Subtraction_2" class="st0" d="M24221,935c-3.34,0.01-6.65-0.66-9.73-1.96c-2.97-1.26-5.67-3.07-7.95-5.36
		c-2.29-2.28-4.1-4.97-5.36-7.95c-1.3-3.08-1.97-6.39-1.96-9.73c-0.01-3.34,0.66-6.65,1.97-9.73c1.25-2.97,3.07-5.67,5.36-7.95
		c2.28-2.28,4.97-4.1,7.95-5.36c3.08-1.3,6.39-1.97,9.73-1.96c3.34-0.01,6.65,0.66,9.73,1.96c2.97,1.25,5.67,3.07,7.95,5.36
		c2.28,2.28,4.1,4.98,5.36,7.95c1.3,3.08,1.97,6.39,1.97,9.73c0.01,3.34-0.66,6.65-1.96,9.73c-1.26,2.97-3.07,5.67-5.36,7.95
		c-2.28,2.28-4.97,4.1-7.95,5.36C24227.65,934.34,24224.34,935.01,24221,935z M24229.92,900.67c-0.11,0-0.22,0.04-0.3,0.12
		c-0.16,0.16-0.16,0.42,0,0.59c2.3,2.28,3.59,5.39,3.58,8.62c0.01,3.24-1.28,6.34-3.57,8.62c-0.16,0.16-0.16,0.42,0,0.59
		c0.08,0.08,0.19,0.12,0.3,0.12c0.11,0,0.21-0.04,0.29-0.12c2.45-2.44,3.83-5.76,3.82-9.21c0.01-3.46-1.37-6.78-3.82-9.21
		C24230.14,900.71,24230.03,900.67,24229.92,900.67L24229.92,900.67z M24208.39,905.8c-0.23,0-0.42,0.18-0.42,0.41v7.57
		c0,0.23,0.19,0.42,0.42,0.42h4.9l6.19,4.95c0.07,0.06,0.15,0.09,0.24,0.09h0.04c0.05,0,0.11-0.02,0.16-0.04
		c0.14-0.07,0.23-0.22,0.23-0.38v-17.65c0-0.16-0.09-0.31-0.23-0.38c-0.05-0.03-0.11-0.04-0.17-0.04h-0.02
		c-0.09,0-0.18,0.03-0.25,0.09l-6.19,4.95L24208.39,905.8z M24225.46,905.12c-0.11,0-0.22,0.04-0.3,0.12
		c-0.16,0.16-0.16,0.43,0,0.59c1.11,1.1,1.73,2.6,1.73,4.16c0.01,1.56-0.62,3.06-1.73,4.16c-0.16,0.16-0.16,0.42,0,0.59c0,0,0,0,0,0
		c0.08,0.08,0.19,0.13,0.3,0.12c0.11,0,0.22-0.04,0.29-0.12c1.27-1.26,1.98-2.97,1.97-4.75c0-1.78-0.71-3.5-1.97-4.75
		C24225.68,905.16,24225.58,905.12,24225.46,905.12L24225.46,905.12z M24219.32,917.96L24219.32,917.96l-5.63-4.51
		c-0.07-0.06-0.17-0.09-0.26-0.09h-4.63v-6.73h4.63c0.09,0,0.19-0.03,0.26-0.09l5.63-4.5L24219.32,917.96L24219.32,917.96z"/>
</g>
</svg>
