<svg xmlns="http://www.w3.org/2000/svg" width="50.002" height="50.001" viewBox="0 0 50.002 50.001">
  <path id="Subtraction_1" data-name="Subtraction 1" d="M-18569,50a24.839,24.839,0,0,1-9.732-1.965,24.934,24.934,0,0,1-7.947-5.359,24.828,24.828,0,0,1-5.357-7.948A24.816,24.816,0,0,1-18594,25a24.8,24.8,0,0,1,1.967-9.729,24.826,24.826,0,0,1,5.357-7.946,24.935,24.935,0,0,1,7.947-5.358A24.839,24.839,0,0,1-18569,0a24.835,24.835,0,0,1,9.729,1.965,24.879,24.879,0,0,1,7.945,5.358,24.827,24.827,0,0,1,5.357,7.946A24.8,24.8,0,0,1-18544,25a24.816,24.816,0,0,1-1.967,9.732,24.83,24.83,0,0,1-5.357,7.948,24.878,24.878,0,0,1-7.945,5.359A24.834,24.834,0,0,1-18569,50Zm-12.5-29.469a.464.464,0,0,0-.467.471v7.434a.467.467,0,0,0,.467.467h4.793l6.061,4.853a.5.5,0,0,0,.295.1.455.455,0,0,0,.205-.047.472.472,0,0,0,.262-.425V16.048a.472.472,0,0,0-.262-.425.5.5,0,0,0-.207-.045.472.472,0,0,0-.293.1l-6.061,4.853Zm21.061,4.848h0l3.383,3.387a.486.486,0,0,0,.332.135.464.464,0,0,0,.33-.135.477.477,0,0,0,0-.667l-3.383-3.383,3.383-3.383a.467.467,0,0,0,.137-.331.467.467,0,0,0-.137-.331.457.457,0,0,0-.33-.14.462.462,0,0,0-.332.14l-3.383,3.383-3.389-3.383a.457.457,0,0,0-.33-.14.468.468,0,0,0-.332.14.467.467,0,0,0-.137.331.467.467,0,0,0,.137.331l3.387,3.383-3.387,3.383a.477.477,0,0,0,0,.667.465.465,0,0,0,.33.135.45.45,0,0,0,.332-.135l3.389-3.387Zm-10.379,7.032h0l-5.43-4.343a.48.48,0,0,0-.295-.1h-4.488v-6.5h4.488a.48.48,0,0,0,.295-.1l5.432-4.345v15.39Z" transform="translate(18594.002)" fill="#ffffff"/>
</svg>
